<svg width="34" height="32" viewBox="0 0 34 32" fill="none" xmlns="http://www.w3.org/2000/svg">
<g clip-path="url(#clip0_717_34)">
<path d="M33.8543 15.1626C33.9328 14.753 33.9705 14.4093 33.9888 14.1397C34.0183 13.6936 33.9847 13.0326 33.9725 12.8258C33.5598 5.68749 26.1165 0 16.9949 0C7.60945 0 0 6.02205 0 13.4503C0 20.2783 6.42849 25.9171 14.7563 26.7849C15.2658 26.8377 15.6326 27.2949 15.5765 27.8018L15.2219 30.9771C15.1415 31.6979 15.8904 32.222 16.5476 31.9067C23.5834 28.5277 27.7916 25.0523 30.3033 22.0413C30.7608 21.4939 32.2515 19.4155 32.5551 18.8691C33.2001 17.7093 33.6444 16.4653 33.8543 15.1626Z" fill="#0B3A76"/>
<path d="M7.65024 16.1745V10.5093C7.65024 10.0318 7.261 9.64453 6.78108 9.64453C6.30116 9.64453 5.91193 10.0318 5.91193 10.5093V17.0393C5.91193 17.5168 6.30116 17.9041 6.78108 17.9041H10.2587C10.7386 17.9041 11.1279 17.5168 11.1279 17.0393C11.1279 16.5618 10.7386 16.1745 10.2587 16.1745H7.65024Z" fill="white"/>
<path d="M13.0129 17.9051H12.6328C12.2578 17.9051 11.9532 17.603 11.9532 17.2289V10.3207C11.9532 9.94766 12.2578 9.64453 12.6328 9.64453H13.0129C13.3879 9.64453 13.6925 9.94766 13.6925 10.3207V17.2289C13.6915 17.602 13.3879 17.9051 13.0129 17.9051Z" fill="white"/>
<path d="M20.0374 10.5094V14.4987C20.0374 14.4987 16.5659 9.99332 16.5129 9.93351C16.3468 9.74798 16.1023 9.63443 15.8313 9.64457C15.3585 9.66282 14.9957 10.0734 14.9957 10.5448V17.0393C14.9957 17.5168 15.385 17.9041 15.8649 17.9041C16.3448 17.9041 16.734 17.5168 16.734 17.0393V13.0743C16.734 13.0743 20.2586 17.6192 20.3105 17.6679C20.4644 17.8129 20.6712 17.9021 20.8984 17.9041C21.3814 17.9082 21.7758 17.4834 21.7758 17.0028V10.5083C21.7758 10.0308 21.3865 9.64355 20.9066 9.64355C20.4267 9.64457 20.0374 10.0318 20.0374 10.5094Z" fill="white"/>
<path d="M28.296 10.5093C28.296 10.0318 27.9068 9.64453 27.4268 9.64453H23.9492C23.4693 9.64453 23.08 10.0318 23.08 10.5093V17.0393C23.08 17.5168 23.4693 17.9041 23.9492 17.9041H27.4268C27.9068 17.9041 28.296 17.5168 28.296 17.0393C28.296 16.5618 27.9068 16.1745 27.4268 16.1745H24.8183V14.6396H27.4268C27.9068 14.6396 28.296 14.2523 28.296 13.7748C28.296 13.2973 27.9068 12.91 27.4268 12.91H24.8183V11.3751H27.4268C27.9068 11.3741 28.296 10.9868 28.296 10.5093Z" fill="white"/>
</g>
<defs>
<clipPath id="clip0_717_34">
<rect width="34" height="32" fill="white"/>
</clipPath>
</defs>
</svg>
